<?xml version="1.0" encoding="UTF-8"?>
<svg width="25" height="40" version="1.1" viewBox="340 500 700 272" xml:space="preserve" xmlns="http://www.w3.org/2000/svg"><defs><clipPath id="a"><path d="m0 1e3h1e3v-1e3h-1e3z"/></clipPath></defs><g transform="matrix(1.3333 0 0 -1.3333 0 1333.3)"><g><g clip-path="url(#a)"><g transform="translate(330.78 636.56)"><path d="m0 0c-0.612 27.403 15.058 52.741 41.272 72.177 0.133 0.099 0.262 0.199 0.395 0.298-0.088-0.054-0.174-0.108-0.262-0.162-32.396-19.389-52.67-46.964-52.67-77.582 0-58.684 74.373-106.26 166.12-106.26 61.238 0 114.7 21.211 143.51 52.759-29.844-25.523-76.765-42.566-129.91-43.754-91.722-2.047-167.14 43.851-168.45 102.52" fill="#0db208"/></g><g transform="translate(508.01 574.66)"><path d="m0 0c6.493 0.774 13 1.722 19.506 2.987 8.468 1.648 16.507 3.571 24.197 5.729v168.39h-59.554v-37.46h15.851z" fill="#0db208"/></g><g transform="translate(449.89 664.36)"><path d="m0 0h-50.908v-75.792c14.579-6.88 31.854-11.689 50.908-14.063z" fill="#0db208"/></g><g transform="translate(458.53 664.36)"><path d="m0 0v-90.751c6.339-0.533 12.833-0.825 19.477-0.825 7.048 0 14.182 0.366 21.348 0.98v131.9h-53.79v-32.659h12.487z" fill="#0db208"/></g><g transform="translate(604.05 614.38)"><path d="m0 0 20.414-2.727c-23.747-19.136-55.103-32.721-95.669-40.611-72.489-14.1-139.47 2.623-168.4 38.13 17.734-48.478 94.933-74.057 179.62-57.585 37.242 7.244 76.016 25.778 102.18 44.695l4.03-20.936 31.656 72.482z" fill="#c0c0c0"/></g><g transform="translate(698.11 218.93)"><path d="m0 0c0-6.547-5.326-11.876-11.873-11.876h-375.07c-6.547 0-11.873 5.329-11.873 11.876v569.56c0 6.547 5.326 11.872 11.873 11.872h375.07c6.547 0 11.873-5.325 11.873-11.872zm-11.873 613.25h-375.07c-24.091 0-43.691-19.6-43.691-43.69v-569.56c0-24.094 19.6-43.694 43.691-43.694h375.07c24.091 0 43.691 19.6 43.691 43.694v569.56c0 24.09-19.6 43.69-43.691 43.69" fill="#c0c0c0"/></g><g transform="translate(398.47 468.74)"><path d="m0 0h-54.719c-8.242 0-14.923-6.681-14.923-14.923v-19.898c0-8.242 6.681-14.924 14.923-14.924h54.719c8.242 0 14.924 6.682 14.924 14.924v19.898c0 8.242-6.682 14.923-14.924 14.923" fill="#c0c0c0"/></g><g transform="translate(504.71 441.77)"><path d="m0 0c0-0.379-0.307-0.687-0.687-0.687h-10.983v-10.983c0-0.379-0.307-0.686-0.686-0.686h-4.119c-0.379 0-0.686 0.307-0.686 0.686v10.983h-10.983c-0.38 0-0.687 0.308-0.687 0.687v4.119c0 0.379 0.307 0.686 0.687 0.686h10.983v10.983c0 0.379 0.307 0.687 0.686 0.687h4.119c0.379 0 0.686-0.308 0.686-0.687v-10.983h10.983c0.38 0 0.687-0.307 0.687-0.686zm13.888 26.974h-54.719c-8.242 0-14.923-6.681-14.923-14.923v-19.898c0-8.242 6.681-14.923 14.923-14.923h54.719c8.242 0 14.923 6.681 14.923 14.923v19.898c0 8.242-6.681 14.923-14.923 14.923" fill="#c0c0c0"/></g><g transform="translate(633.09 436.32)"><path d="m0 0c0.268-0.268 0.268-0.703 0-0.971l-2.912-2.912c-0.268-0.268-0.703-0.268-0.971 0l-7.766 7.766-7.767-7.766c-0.268-0.268-0.702-0.268-0.971 0l-2.912 2.912c-0.268 0.268-0.268 0.703 0 0.971l7.766 7.766-7.766 7.766c-0.268 0.268-0.268 0.703 0 0.971l2.912 2.913c0.269 0.268 0.703 0.268 0.971 0l7.767-7.767 7.766 7.767c0.268 0.268 0.703 0.268 0.971 0l2.912-2.913c0.268-0.268 0.268-0.703 0-0.971l-7.767-7.766zm20.565 32.425h-69.642c-8.242 0-14.924-6.681-14.924-14.924v-19.897c0-8.242 6.682-14.923 14.924-14.923h69.642c8.242 0 14.923 6.681 14.923 14.923v19.897c0 8.243-6.681 14.924-14.923 14.924" fill="#c0c0c0"/></g><g transform="translate(398.47 385.17)"><path d="m0 0h-54.719c-8.242 0-14.923-6.681-14.923-14.923v-19.898c0-8.242 6.681-14.924 14.923-14.924h54.719c8.242 0 14.924 6.682 14.924 14.924v19.898c0 8.242-6.682 14.923-14.924 14.923" fill="#c0c0c0"/></g><g transform="translate(504.71 356.98)"><path d="m0 0c0-0.379-0.307-0.686-0.687-0.686h-27.457c-0.38 0-0.687 0.307-0.687 0.686v4.119c0 0.379 0.307 0.686 0.687 0.686h27.457c0.38 0 0.687-0.307 0.687-0.686zm13.888 28.189h-54.719c-8.242 0-14.923-6.681-14.923-14.923v-19.898c0-8.242 6.681-14.923 14.923-14.923h54.719c8.242 0 14.923 6.681 14.923 14.923v19.898c0 8.242-6.681 14.923-14.923 14.923" fill="#c0c0c0"/></g><g transform="translate(635.68 358.29)"><path d="m0 0c0-0.379-0.307-0.687-0.686-0.687h-27.458c-0.379 0-0.687 0.308-0.687 0.687v4.119c0 0.379 0.308 0.686 0.687 0.686h27.458c0.379 0 0.686-0.307 0.686-0.686zm-11.043-8.224c0-0.379-0.072-0.686-0.16-0.686h-6.424c-0.089 0-0.161 0.307-0.161 0.686v4.119c0 0.379 0.072 0.687 0.161 0.687h6.424c0.088 0 0.16-0.308 0.16-0.687zm-6.745 20.566c0 0.379 0.072 0.687 0.161 0.687h6.424c0.088 0 0.16-0.308 0.16-0.687v-4.119c0-0.379-0.072-0.686-0.16-0.686h-6.424c-0.089 0-0.161 0.307-0.161 0.686zm35.764 14.537h-69.643c-8.242 0-14.923-6.681-14.923-14.924v-19.897c0-8.242 6.681-14.923 14.923-14.923h69.643c8.242 0 14.923 6.681 14.923 14.923v19.897c0 8.243-6.681 14.924-14.923 14.924" fill="#c0c0c0"/></g><g transform="translate(398.47 301.6)"><path d="m0 0h-54.719c-8.242 0-14.923-6.681-14.923-14.923v-19.898c0-8.242 6.681-14.924 14.923-14.924h54.719c8.242 0 14.924 6.682 14.924 14.924v19.898c0 8.242-6.682 14.923-14.924 14.923" fill="#c0c0c0"/></g><g transform="translate(491.9 264.86)"><path d="m0 0c-6.619 0-12.129 3.981-12.129 12.082 0 8.1 5.51 12.081 12.129 12.081 3.241 0 5.741-0.925 8.238-3.378l-3.563-3.75c-1.343 1.203-3.009 1.803-4.584 1.803-3.794 0-6.572-2.775-6.572-6.756 0-4.351 2.962-6.666 6.481-6.666 1.806 0 3.61 0.509 5 1.897l3.794-3.703c-2.637-2.591-5.416-3.61-8.794-3.61m26.702 36.739h-54.719c-8.242 0-14.923-6.681-14.923-14.923v-19.898c0-8.242 6.681-14.923 14.923-14.923h54.719c8.242 0 14.924 6.681 14.924 14.923v19.898c0 8.242-6.682 14.923-14.924 14.923" fill="#c0c0c0"/></g><g transform="translate(636.74 280.1)"><path d="m0 0c0-0.379-0.307-0.686-0.686-0.686h-27.458c-0.379 0-0.687 0.307-0.687 0.686v4.119c0 0.379 0.308 0.686 0.687 0.686h27.458c0.379 0 0.686-0.307 0.686-0.686zm0-10.068c0-0.379-0.307-0.686-0.686-0.686h-27.458c-0.379 0-0.687 0.307-0.687 0.686v4.119c0 0.379 0.308 0.686 0.687 0.686h27.458c0.379 0 0.686-0.307 0.686-0.686zm16.918 31.568h-69.642c-8.242 0-14.924-6.681-14.924-14.923v-19.897c0-8.243 6.682-14.924 14.924-14.924h69.642c8.243 0 14.924 6.681 14.924 14.924v19.897c0 8.242-6.681 14.923-14.924 14.923" fill="#c0c0c0"/></g></g></g></g></svg>
